<svg xmlns="http://www.w3.org/2000/svg" xmlns:xlink="http://www.w3.org/1999/xlink" viewBox="0 0 381.11 381.11"><defs><style>.cls-1{fill:#fff;}.cls-2{fill:#ff0600;}.cls-3{fill:#2b2b2b;}.cls-4{fill:url(#linear-gradient);}.cls-5{fill:#ff7c41;}.cls-6{fill:#2311a5;}.cls-7{fill:url(#linear-gradient-2);}.cls-8{fill:#efefef;}</style><linearGradient id="linear-gradient" x1="190.56" y1="121.3" x2="190.56" y2="205.3" gradientUnits="userSpaceOnUse"><stop offset="0" stop-color="#e3e3e3"/><stop offset="1" stop-color="#a8a8a8"/></linearGradient><linearGradient id="linear-gradient-2" x1="187.98" y1="22.3" x2="187.98" y2="195.3" gradientUnits="userSpaceOnUse"><stop offset="0" stop-color="#ff3200"/><stop offset="1" stop-color="red"/></linearGradient></defs><title>Asset 12</title><g id="Layer_2" data-name="Layer 2"><g id="Layer_1-2" data-name="Layer 1"><rect class="cls-1" width="381.11" height="381.11"/><path class="cls-2" d="M190.51,209.43l0,134.66L307,294.44,250.24,307a25.86,25.86,0,0,1-30.41-18l-15.9-54.82Z"/><polyline class="cls-1" points="71.51 203.84 71.51 296.15 190.51 346.89 190.51 336.87"/><path class="cls-3" d="M190.51,349.47a2.58,2.58,0,0,1-1-.21l-119-50.74a2.58,2.58,0,0,1-1.57-2.37V203.84a2.58,2.58,0,1,1,5.16,0v90.61L187.93,343v-6.12a2.58,2.58,0,1,1,5.16,0v10a2.58,2.58,0,0,1-2.58,2.58Z"/><path class="cls-3" d="M190.56,349.47a2.58,2.58,0,0,1-1-5L307,294.44V163.56L191.6,211.81a2.58,2.58,0,1,1-2-4.76l119-49.75a2.58,2.58,0,0,1,3.58,2.38V296.15a2.58,2.58,0,0,1-1.57,2.37l-119,50.74A2.58,2.58,0,0,1,190.56,349.47Z"/><line class="cls-1" x1="71.51" y1="171.01" x2="71.51" y2="193.52"/><path class="cls-3" d="M71.51,196.1a2.58,2.58,0,0,1-2.58-2.58V171a2.58,2.58,0,1,1,5.16,0v22.5A2.58,2.58,0,0,1,71.51,196.1Z"/><polyline class="cls-1" points="190.51 300.91 190.51 209.43 71.51 158.68"/><path class="cls-3" d="M190.51,303.49a2.58,2.58,0,0,1-2.58-2.58V211.13L70.5,161.05a2.58,2.58,0,0,1,2-4.75l119,50.74a2.58,2.58,0,0,1,1.57,2.37v91.48A2.58,2.58,0,0,1,190.51,303.49Z"/><line class="cls-1" x1="190.51" y1="324.54" x2="190.51" y2="314.78"/><path class="cls-3" d="M190.51,327.12a2.58,2.58,0,0,1-2.58-2.58v-9.76a2.58,2.58,0,0,1,5.16,0v9.76A2.58,2.58,0,0,1,190.51,327.12Z"/><polygon class="cls-4" points="71.51 158.68 190.6 209.43 309.61 158.68 190.69 108.08 71.51 158.68"/><path class="cls-3" d="M190.6,212a2.58,2.58,0,0,1-1-.21L70.5,161.05a2.58,2.58,0,0,1,0-4.75l119.18-50.6a2.57,2.57,0,0,1,2,0l118.92,50.6a2.58,2.58,0,0,1,0,4.75l-119,50.74A2.6,2.6,0,0,1,190.6,212ZM78.1,158.68l112.5,47.94L303,158.68l-112.34-47.8Z"/><polyline class="cls-2" points="71.51 158.68 187.98 209.43 152.53 269.41 38.8 214.05 57.58 182.26"/><path class="cls-3" d="M152.53,272a2.57,2.57,0,0,1-1.13-.26L37.67,216.37a2.58,2.58,0,0,1-1.09-3.63l18.78-31.79a2.58,2.58,0,0,1,4.44,2.63L42.44,213l109.08,53.1,32.75-55.43L70.48,161a2.58,2.58,0,1,1,2.06-4.73L189,207.06a2.58,2.58,0,0,1,1.19,3.68l-35.44,60A2.58,2.58,0,0,1,152.53,272Z"/><line class="cls-5" x1="62.53" y1="173.87" x2="67.48" y2="165.5"/><path class="cls-3" d="M62.53,176.46a2.58,2.58,0,0,1-2.22-3.89l4.95-8.38a2.58,2.58,0,0,1,4.44,2.63l-4.95,8.38A2.58,2.58,0,0,1,62.53,176.46Z"/><polyline class="cls-6" points="332.71 219.37 342.31 214.69 309.6 159.33 193.14 210.07 228.58 270.06 307.38 231.7"/><path class="cls-3" d="M228.58,272.64a2.58,2.58,0,0,1-2.22-1.27l-35.44-60a2.58,2.58,0,0,1,1.19-3.68L308.57,157a2.59,2.59,0,0,1,3.25,1.05l32.71,55.37a2.58,2.58,0,0,1-1.09,3.63l-9.61,4.68a2.58,2.58,0,1,1-2.26-4.64l7.09-3.45-30.13-51-111.7,48.67,32.75,55.43,76.66-37.32a2.58,2.58,0,1,1,2.26,4.64l-78.8,38.36A2.57,2.57,0,0,1,228.58,272.64Z"/><line class="cls-5" x1="320.26" y1="225.43" x2="325.45" y2="222.91"/><path class="cls-3" d="M320.26,228a2.58,2.58,0,0,1-1.13-4.9l5.19-2.52a2.58,2.58,0,1,1,2.26,4.64l-5.19,2.52A2.56,2.56,0,0,1,320.26,228Z"/><path class="cls-7" d="M193.14,178.94C190,184.05,188,187.1,188,187.1s-48.06-73.54-48.06-104.82a48.06,48.06,0,0,1,96.11,0c0,17.8-15.55,49.26-29,73.09"/><path class="cls-3" d="M188,189.68a2.58,2.58,0,0,1-2.16-1.17c-2-3-48.48-74.54-48.48-106.23a50.64,50.64,0,1,1,101.27,0c0,18.44-15.93,50.61-29.29,74.35a2.58,2.58,0,1,1-4.5-2.53c18.73-33.28,28.63-58.11,28.63-71.82a45.48,45.48,0,0,0-91,0c0,26.41,36.17,85.32,45.48,100,.8-1.27,1.8-2.86,3-4.74a2.58,2.58,0,1,1,4.38,2.72c-3.19,5.15-5.19,8.21-5.19,8.21A2.58,2.58,0,0,1,188,189.68Z"/><path class="cls-5" d="M202.3,163.7q-1.36,2.32-2.64,4.48"/><path class="cls-3" d="M199.66,170.77a2.58,2.58,0,0,1-2.21-3.9c.85-1.43,1.73-2.92,2.63-4.46a2.58,2.58,0,1,1,4.46,2.6q-1.36,2.34-2.65,4.5A2.58,2.58,0,0,1,199.66,170.77Z"/><path class="cls-8" d="M178.31,59.9a22.86,22.86,0,0,0-3,1.68"/><path class="cls-3" d="M175.32,64.16a2.58,2.58,0,0,1-1.43-4.73,25.39,25.39,0,0,1,3.33-1.87,2.58,2.58,0,0,1,2.18,4.68,20.32,20.32,0,0,0-2.66,1.49A2.56,2.56,0,0,1,175.32,64.16Z"/><path class="cls-8" d="M190.52,61.58A21.62,21.62,0,0,0,174,97.12a21.62,21.62,0,0,0,30.59-30.35A21.53,21.53,0,0,0,190.52,61.58Z"/><path class="cls-3" d="M188,106.14A25.48,25.48,0,0,1,166.34,67.2a2.58,2.58,0,0,1,4.38,2.73A20.32,20.32,0,1,0,188,60.35a2.58,2.58,0,1,1,0-5.16,25.48,25.48,0,1,1,0,51Z"/><path class="cls-6" d="M118.68,313.45l-44.59-19V234.1L152.53,272l-45-15a6.39,6.39,0,0,0-8,8.41Z"/></g></g></svg>