<svg xmlns="http://www.w3.org/2000/svg" xmlns:xlink="http://www.w3.org/1999/xlink" viewBox="0 0 381.11 381.11"><defs><style>.cls-1{fill:#fff;}.cls-2{fill:#2b2b2b;}.cls-3{fill:url(#linear-gradient);}.cls-4{fill:#2311a5;}.cls-5{fill:url(#linear-gradient-2);}.cls-6{fill:#ff7c41;}.cls-7{fill:url(#linear-gradient-3);}.cls-8{fill:url(#linear-gradient-4);}</style><linearGradient id="linear-gradient" x1="239.55" y1="205.48" x2="377.86" y2="205.48" gradientUnits="userSpaceOnUse"><stop offset="0" stop-color="#ff3200"/><stop offset="1" stop-color="red"/></linearGradient><linearGradient id="linear-gradient-2" x1="9.76" y1="159.31" x2="237.92" y2="159.31" xlink:href="#linear-gradient"/><linearGradient id="linear-gradient-3" x1="285.28" y1="282.35" x2="334.58" y2="282.35" xlink:href="#linear-gradient"/><linearGradient id="linear-gradient-4" x1="79.99" y1="283.15" x2="128.77" y2="283.15" xlink:href="#linear-gradient"/></defs><title>Asset 11</title><g id="Layer_2" data-name="Layer 2"><g id="Layer_1-2" data-name="Layer 1"><rect class="cls-1" width="381.11" height="381.11"/><path class="cls-2" d="M379.49,248.94H237.92a1.63,1.63,0,0,1-1.63-1.63V129.42a1.63,1.63,0,0,1,1.63-1.63h4.9a1.63,1.63,0,1,1,0,3.25h-3.28V245.68H377.86V217l-64.27-86H263.43a1.63,1.63,0,0,1,0-3.25h51a1.63,1.63,0,0,1,1.3.65l65.08,87a1.62,1.62,0,0,1,.32,1v30.85A1.63,1.63,0,0,1,379.49,248.94Z"/><polyline class="cls-1" points="321.46 244.06 379.49 244.06 379.49 281.54 237.92 281.54 237.92 244.06 292.17 244.06"/><polygon class="cls-3" points="239.55 131.05 313.59 131.05 377.86 217 377.86 279.91 239.55 279.91 239.55 131.05"/><rect class="cls-4" x="3.25" y="249.85" width="374.6" height="26.24"/><line class="cls-1" x1="253.13" y1="129.42" x2="248.79" y2="129.42"/><path class="cls-2" d="M253.13,131h-4.34a1.63,1.63,0,1,1,0-3.25h4.34a1.63,1.63,0,1,1,0,3.25Z"/><path class="cls-5" d="M86.64,81.7H237.92V236.92H109A99.25,99.25,0,0,1,9.76,137.68v-56"/><path class="cls-2" d="M236.29,243.85V83.32H86.63a1.63,1.63,0,1,1,0-3.25H237.92a1.63,1.63,0,0,1,1.63,1.63V245.48"/><path class="cls-2" d="M1.63,247.1A1.63,1.63,0,0,1,0,245.48V81.7a1.63,1.63,0,0,1,1.63-1.63H8.54a1.63,1.63,0,0,1,0,3.25H3.25V243.85"/><line class="cls-6" x1="68.74" y1="81.7" x2="74.7" y2="81.7"/><path class="cls-2" d="M74.7,83.32h-6a1.63,1.63,0,0,1,0-3.25h6a1.63,1.63,0,0,1,0,3.25Z"/><line class="cls-6" x1="19.39" y1="81.7" x2="63.86" y2="81.7"/><path class="cls-2" d="M63.86,83.32H19.39a1.63,1.63,0,1,1,0-3.25H63.86a1.63,1.63,0,0,1,0,3.25Z"/><path class="cls-2" d="M237.92,283.17H1.63A1.63,1.63,0,0,1,0,281.54V244.06a1.63,1.63,0,0,1,1.63-1.63H202.69a1.63,1.63,0,0,1,0,3.25H3.25v34.23h233V245.68h-7a1.63,1.63,0,1,1,0-3.25h8.66a1.63,1.63,0,0,1,1.63,1.63v37.48A1.63,1.63,0,0,1,237.92,283.17Z"/><line class="cls-1" x1="213.54" y1="244.06" x2="221.67" y2="244.06"/><path class="cls-2" d="M221.67,245.68h-8.13a1.63,1.63,0,1,1,0-3.25h8.13a1.63,1.63,0,1,1,0,3.25Z"/><path class="cls-2" d="M379.49,283.17H237.92a1.63,1.63,0,0,1-1.63-1.63V244.06a1.63,1.63,0,0,1,1.63-1.63h54.25a1.63,1.63,0,0,1,0,3.25H239.55v34.23H377.86V245.68h-56.4a1.63,1.63,0,0,1,0-3.25h58a1.63,1.63,0,0,1,1.63,1.63v37.48A1.63,1.63,0,0,1,379.49,283.17Z"/><line class="cls-1" x1="304.1" y1="244.06" x2="311.15" y2="244.06"/><path class="cls-2" d="M311.15,245.68H304.1a1.63,1.63,0,0,1,0-3.25h7.05a1.63,1.63,0,1,1,0,3.25Z"/><path class="cls-7" d="M334.58,281.54a24.68,24.68,0,1,0-48.77,6.84l6.39,12.4a26,26,0,0,0,3.45,3.07,25.84,25.84,0,0,0,38.93-22.31Z"/><path class="cls-2" d="M308.7,309a27.52,27.52,0,0,1-26.94-33,1.63,1.63,0,0,1,3.19.65,24.26,24.26,0,1,0,6-11.62,1.63,1.63,0,0,1-2.38-2.21A27.5,27.5,0,1,1,308.7,309Z"/><path class="cls-6" d="M286.3,268.58a25.79,25.79,0,0,0-1.22,2.37"/><path class="cls-2" d="M285.09,272.58a1.63,1.63,0,0,1-1.48-2.29,27.57,27.57,0,0,1,1.29-2.52,1.63,1.63,0,0,1,2.82,1.63,24.27,24.27,0,0,0-1.14,2.22A1.63,1.63,0,0,1,285.09,272.58Z"/><path class="cls-8" d="M102.89,307.42a25.85,25.85,0,0,0,20.43-41.72A25.87,25.87,0,0,0,81.8,294.27l7.38,9.18A25.72,25.72,0,0,0,102.89,307.42Z"/><path class="cls-2" d="M102.89,309a27.52,27.52,0,0,1-25.58-37.61,1.63,1.63,0,1,1,3,1.2,24.26,24.26,0,1,0,9-11.2,1.63,1.63,0,1,1-1.82-2.7A27.5,27.5,0,1,1,102.89,309Z"/><path class="cls-6" d="M83.31,264.62a26,26,0,0,0-1.69,2.18"/><path class="cls-2" d="M81.62,268.43a1.63,1.63,0,0,1-1.34-2.55,27.44,27.44,0,0,1,1.8-2.32,1.63,1.63,0,1,1,2.46,2.13,24.33,24.33,0,0,0-1.58,2A1.62,1.62,0,0,1,81.62,268.43Z"/><path class="cls-2" d="M236.29,124.32H159.1a1.63,1.63,0,0,1,0-3.25h77.19a1.63,1.63,0,0,1,0,3.25Z"/><path class="cls-2" d="M151,124.32H130.4a1.63,1.63,0,0,1,0-3.25H151a1.63,1.63,0,0,1,0,3.25Z"/><path class="cls-2" d="M192.73,173.62H179.17a1.63,1.63,0,0,1,0-3.25h13.56a1.63,1.63,0,0,1,0,3.25Z"/><polygon class="cls-1" points="261.26 135.39 262.89 205.34 357.8 205.34 307.89 138.64 261.26 135.39"/><path class="cls-2" d="M170.49,173.62h-8.13a1.63,1.63,0,1,1,0-3.25h8.13a1.63,1.63,0,0,1,0,3.25Z"/><path class="cls-2" d="M153.68,173.62H3.25a1.63,1.63,0,0,1,0-3.25H153.68a1.63,1.63,0,1,1,0,3.25Z"/><path class="cls-2" d="M162.36,208.6H74.7a1.63,1.63,0,0,1,0-3.25h87.65a1.63,1.63,0,0,1,0,3.25Z"/><path class="cls-2" d="M181.34,208.6H170.49a1.63,1.63,0,0,1,0-3.25h10.85a1.63,1.63,0,0,1,0,3.25Z"/><path class="cls-2" d="M361,208.6H261.26a1.63,1.63,0,0,1-1.63-1.63V163.59a1.63,1.63,0,0,1,3.25,0v41.76H357.8l-49.91-66.7H261.26a1.63,1.63,0,1,1,0-3.25H308.7a1.63,1.63,0,0,1,1.3.65l52.34,70a1.63,1.63,0,0,1-1.3,2.6Z"/><line class="cls-6" x1="261.26" y1="152.47" x2="261.26" y2="142.71"/><path class="cls-2" d="M261.26,154.1a1.63,1.63,0,0,1-1.63-1.63v-9.76a1.63,1.63,0,0,1,3.25,0v9.76A1.63,1.63,0,0,1,261.26,154.1Z"/><path class="cls-4" d="M262.89,176s23.65,25.93,92.4,29.43l-92.4-.14Z"/></g></g></svg>