<svg xmlns="http://www.w3.org/2000/svg" viewBox="0 0 999.21 300.64"><defs><style>.cls-1{fill:#2311a5;}.cls-2,.cls-4{fill:#f30;}.cls-3{font-size:252.94px;fill:#160d93;font-family:Lato-BoldItalic, Lato;font-weight:700;letter-spacing:-0.01em;}.cls-3,.cls-4{font-style:italic;}.cls-4{font-size:88.16px;font-family:Lato-Italic, Lato;}.cls-5{letter-spacing:-0.03em;}.cls-6{letter-spacing:0em;}.cls-7{letter-spacing:-0.02em;}</style></defs><title>Asset 1</title><g id="Layer_2" data-name="Layer 2"><g id="Layer_1-2" data-name="Layer 1"><path class="cls-1" d="M439.92,105.11h-78a12.29,12.29,0,0,1,0-24.58h78a12.29,12.29,0,0,1,0,24.58Z"/><path class="cls-1" d="M373.86,56.22H365a12.29,12.29,0,0,1,0-24.58h8.89a12.29,12.29,0,1,1,0,24.58Z"/><path class="cls-1" d="M352.09,276.06h-8.79c-.24,0-.44.14-.68.14H300.38a12.29,12.29,0,0,1,0-24.58h5a12.16,12.16,0,0,0,0-24.3h-52.3a12.29,12.29,0,1,1,0-24.58h27.72a12.16,12.16,0,0,0,0-24.3H269a12.29,12.29,0,0,1,0-24.58h62.83c.24,0,.44.12.68.14H356.7a12.29,12.29,0,1,0,0-24.58H323c-.24,0-.44.14-.68.14H259.48a12.29,12.29,0,0,1,0-24.58h48.75a12.16,12.16,0,0,0,0-24.3H271.77a12.29,12.29,0,1,1,0-24.58h56.79a12.23,12.23,0,0,0-.68-24.44H252.74c-.26,0-.47.13-.72.15s-.6-.09-.91-.09a24.58,24.58,0,0,0-24.58,24.58V152c0,54.81-39.78,99.39-88.68,99.39S49.16,206.83,49.16,152V56.28A24.58,24.58,0,1,0,0,56.28V152c0,81.91,61.83,148.55,137.84,148.55,1.3,0,2.56-.17,3.86-.21a11.52,11.52,0,0,0,1.37.28h209a12.29,12.29,0,1,0,0-24.58Z"/><path class="cls-1" d="M368.75,202.88H355.08a12.29,12.29,0,0,1,0-24.58h13.67a12.29,12.29,0,0,1,0,24.58Z"/><path class="cls-2" d="M187.58,126.94H159.33c0-.08,0-.16,0-.23a8.83,8.83,0,0,1-1.16.23H142.09a9.41,9.41,0,1,1,0-18.82h9.38a9.41,9.41,0,1,0,0-18.82H113.89c-.05,0-.09,0-.14,0l-.48,0a47,47,0,1,0,0,94.1l.48,0c.05,0,.09,0,.14,0h50.2a9.41,9.41,0,1,0,0-18.82H150a9.41,9.41,0,1,1,0-18.82h37.59a9.41,9.41,0,0,0,0-18.82Z"/><rect class="cls-2" x="170.63" y="89.31" width="18.82" height="18.82" rx="9.41" ry="9.41"/><rect class="cls-2" x="182.52" y="164.58" width="28.93" height="18.82" rx="9.41" ry="9.41"/><path class="cls-2" d="M407.75,141.7h-6.39a12.58,12.58,0,0,1-12.73-12.09,12.29,12.29,0,0,1,12.29-12.49h6.39A12.58,12.58,0,0,1,420,129.21,12.29,12.29,0,0,1,407.75,141.7Z"/><path class="cls-2" d="M321.5,221.42h-6.39a12.58,12.58,0,0,1-12.73-12.09,12.29,12.29,0,0,1,12.29-12.49h6.39a12.58,12.58,0,0,1,12.73,12.09A12.29,12.29,0,0,1,321.5,221.42Z"/><path class="cls-2" d="M434.43,195.69H404.34a12.29,12.29,0,0,1,0-24.58h30.09a12.29,12.29,0,0,1,0,24.58Z"/><path class="cls-1" d="M400.49,262.13h-46.8a12.29,12.29,0,0,1,0-24.58h46.8a12.29,12.29,0,0,1,0,24.58Z"/><text class="cls-3" transform="translate(492.97 217.9)">unix.</text><text class="cls-4" transform="translate(719.93 272.44)"><tspan class="cls-5">e</tspan><tspan class="cls-6" x="38.4" y="0">xp</tspan><tspan class="cls-7" x="125.37" y="0">r</tspan><tspan x="154.55" y="0">ess</tspan></text></g></g></svg>